<?xml version="1.0" standalone="no"?>
<!DOCTYPE svg PUBLIC "-//W3C//DTD SVG 20010904//EN"
 "http://www.w3.org/TR/2001/REC-SVG-20010904/DTD/svg10.dtd">
<svg version="1.0" xmlns="http://www.w3.org/2000/svg"
 width="900.000000pt" height="900.000000pt" viewBox="0 0 900.000000 900.000000"
 preserveAspectRatio="xMidYMid meet">

<g transform="translate(0.000000,900.000000) scale(0.100000,-0.100000)"
fill="#000000" stroke="none">
<path d="M3345 8924 c-303 -6 -754 -26 -905 -40 -556 -52 -1008 -210 -1375
-481 -116 -86 -382 -352 -468 -468 -270 -366 -430 -823 -481 -1375 -34 -377
-41 -708 -41 -2075 1 -1786 16 -2105 121 -2533 117 -479 312 -831 635 -1148
273 -266 526 -420 897 -543 322 -108 576 -145 1157 -173 368 -17 2851 -18
3220 0 598 28 840 64 1170 173 343 114 628 285 879 528 432 419 667 954 731
1661 35 396 40 693 39 2215 -1 1417 -12 1755 -70 2130 -50 329 -163 669 -301
910 -240 418 -628 768 -1053 950 -378 162 -714 226 -1350 256 -203 9 -2442 20
-2805 13z m2850 -813 c393 -21 615 -56 839 -132 571 -194 921 -631 1030 -1284
49 -297 58 -563 63 -1950 7 -1726 -9 -2208 -87 -2565 -30 -137 -78 -277 -140
-405 -198 -409 -547 -681 -1035 -805 -337 -85 -699 -99 -2500 -95 -1505 3
-1751 10 -2060 61 -637 106 -1074 446 -1271 991 -144 397 -165 745 -163 2643
3 1828 20 2097 159 2495 128 364 387 660 729 831 185 93 471 168 736 193 101
10 453 27 685 35 265 8 2827 -3 3015 -13z"/>
<path d="M6700 7367 c-144 -49 -245 -137 -310 -271 -87 -178 -73 -370 39 -534
44 -64 75 -95 142 -140 294 -198 701 -46 803 298 21 70 21 207 1 284 -44 166
-188 315 -353 366 -92 28 -235 27 -322 -3z"/>
<path d="M4205 6755 c-909 -129 -1636 -754 -1890 -1625 -64 -223 -80 -343 -80
-630 1 -272 9 -349 61 -555 74 -295 219 -594 406 -837 92 -119 287 -314 406
-406 321 -247 708 -406 1112 -457 182 -24 490 -17 669 15 221 39 410 102 621
206 652 323 1105 930 1231 1649 30 174 37 485 15 663 -108 846 -667 1554
-1464 1853 -116 44 -291 90 -432 115 -132 23 -520 28 -655 9z m548 -801 c112
-18 297 -79 404 -132 279 -141 524 -386 665 -665 54 -108 114 -291 134 -412
25 -147 23 -369 -5 -512 -59 -306 -191 -554 -410 -774 -286 -285 -637 -432
-1036 -432 -180 0 -302 19 -466 73 -231 76 -404 184 -580 359 -175 176 -283
349 -359 580 -54 164 -73 286 -73 466 0 303 85 577 254 827 82 121 266 305
387 387 320 217 694 298 1085 235z"/>
</g>
</svg>
