<?xml version="1.0" standalone="no"?>
<!DOCTYPE svg PUBLIC "-//W3C//DTD SVG 20010904//EN"
 "http://www.w3.org/TR/2001/REC-SVG-20010904/DTD/svg10.dtd">
<svg version="1.0" xmlns="http://www.w3.org/2000/svg"
 width="500.000000pt" height="500.000000pt" viewBox="0 0 500.000000 500.000000"
 preserveAspectRatio="xMidYMid meet">

<g transform="translate(0.000000,500.000000) scale(0.100000,-0.100000)"
fill="#000000" stroke="none">
<path d="M1272 3660 c2 -5 212 -289 468 -631 256 -341 469 -627 473 -635 10
-18 -1 -33 -151 -192 -115 -123 -279 -300 -506 -547 -61 -66 -140 -151 -176
-190 -36 -38 -78 -85 -94 -102 l-30 -33 105 0 104 1 110 119 c61 66 130 142
155 169 293 319 585 631 589 631 3 -1 160 -208 349 -460 l343 -460 365 0 c305
0 364 2 357 14 -4 7 -231 311 -503 675 -272 364 -496 666 -498 671 -3 7 153
179 438 485 31 33 90 96 131 140 41 44 128 138 194 209 66 71 122 132 123 137
2 5 -41 9 -96 9 l-100 0 -55 -57 c-29 -32 -141 -152 -248 -268 -106 -115 -250
-271 -319 -345 -69 -74 -136 -146 -147 -158 l-21 -24 -319 426 -318 426 -363
0 c-231 0 -362 -4 -360 -10z m744 -273 c50 -67 385 -516 745 -997 360 -481
659 -881 663 -887 6 -10 -30 -13 -167 -13 l-175 0 -353 473 c-194 259 -532
711 -751 1004 -219 292 -398 534 -398 537 0 3 78 6 173 6 l172 0 91 -123z"/>
</g>
</svg>
