<?xml version="1.0" standalone="no"?>
<!DOCTYPE svg PUBLIC "-//W3C//DTD SVG 20010904//EN"
 "http://www.w3.org/TR/2001/REC-SVG-20010904/DTD/svg10.dtd">
<svg version="1.0" xmlns="http://www.w3.org/2000/svg"
 width="900.000000pt" height="512.000000pt" viewBox="0 0 900.000000 512.000000"
 preserveAspectRatio="xMidYMid meet">

<g transform="translate(0.000000,512.000000) scale(0.100000,-0.100000)"
fill="#000000" stroke="none">
<path d="M3710 5114 c-217 -26 -368 -59 -518 -116 -263 -98 -487 -243 -687
-443 -298 -298 -476 -654 -547 -1090 -16 -102 -16 -425 1 -530 68 -433 248
-792 546 -1090 294 -294 638 -469 1065 -542 145 -24 435 -24 580 0 427 73 771
248 1065 542 486 486 672 1171 500 1845 -82 320 -256 621 -500 865 -291 291
-643 471 -1055 540 -92 15 -379 27 -450 19z m431 -504 c800 -163 1303 -947
1118 -1740 -176 -752 -924 -1232 -1683 -1079 -796 161 -1300 947 -1115 1739
121 519 527 932 1049 1065 188 49 437 54 631 15z"/>
<path d="M3685 4305 c-138 -23 -227 -54 -354 -121 -251 -132 -455 -381 -540
-659 -29 -97 -51 -221 -51 -291 l0 -34 159 0 158 0 7 69 c33 355 293 642 648
715 42 9 93 16 113 16 l35 0 0 160 0 160 -47 -1 c-27 -1 -84 -7 -128 -14z"/>
<path d="M5686 1911 c-137 -196 -328 -388 -528 -530 l-90 -65 619 -617 c560
-560 624 -621 681 -648 190 -89 402 -53 548 93 146 146 182 358 93 548 -27 57
-88 121 -648 682 l-618 618 -57 -81z"/>
</g>
</svg>
